<svg width="128" height="128" viewBox="0 0 128 128" fill="none" xmlns="http://www.w3.org/2000/svg">
  <!-- 背景 -->
  <rect width="128" height="128" rx="16" fill="#2E7D32"/>
  
  <!-- 主要图标 - 立方体 -->
  <g transform="translate(24, 24)">
    <!-- 立方体顶面 -->
    <path d="M40 20 L60 10 L80 20 L60 30 Z" fill="#4CAF50"/>
    
    <!-- 立方体左面 -->
    <path d="M40 20 L60 30 L60 50 L40 40 Z" fill="#388E3C"/>
    
    <!-- 立方体右面 -->
    <path d="M60 30 L80 20 L80 40 L60 50 Z" fill="#2E7D32"/>
    
    <!-- 内部细节 -->
    <rect x="45" y="25" width="6" height="6" fill="#66BB6A"/>
    <rect x="54" y="25" width="6" height="6" fill="#66BB6A"/>
    <rect x="69" y="25" width="6" height="6" fill="#66BB6A"/>
    
    <rect x="45" y="34" width="6" height="6" fill="#81C784"/>
    <rect x="69" y="34" width="6" height="6" fill="#81C784"/>
  </g>
  
  <!-- 工具图标 -->
  <g transform="translate(16, 80)">
    <!-- 扳手 -->
    <path d="M8 8 L16 16 L14 18 L6 10 Z" fill="#FFF" stroke="#FFF" stroke-width="1"/>
    <circle cx="18" cy="18" r="3" fill="none" stroke="#FFF" stroke-width="1.5"/>
  </g>
  
  <!-- 文字 MC -->
  <text x="64" y="110" font-family="Arial, sans-serif" font-size="16" font-weight="bold" text-anchor="middle" fill="#FFF">MC</text>
</svg>